<?xml version="1.0" standalone="no"?>
<!DOCTYPE svg PUBLIC "-//W3C//DTD SVG 20010904//EN"
 "http://www.w3.org/TR/2001/REC-SVG-20010904/DTD/svg10.dtd">
<svg version="1.0" xmlns="http://www.w3.org/2000/svg"
 width="523.000000pt" height="523.000000pt" viewBox="0 0 523.000000 523.000000"
 preserveAspectRatio="xMidYMid meet">
<metadata>
Created by potrace 1.14, written by Peter Selinger 2001-2017
</metadata>
<g transform="translate(0.000000,523.000000) scale(0.100000,-0.100000)"
fill="#000000" stroke="none">
<path d="M330 3023 c0 -6 7 -14 16 -17 8 -3 12 -11 9 -17 -5 -7 -14 -4 -26 7
-19 17 -20 17 -13 -2 7 -17 6 -17 -9 -5 -14 11 -17 11 -17 0 0 -11 -2 -11 -10
1 -8 13 -10 12 -10 -4 0 -19 0 -19 -22 0 -13 10 -17 12 -10 4 18 -20 15 -30
-9 -30 -15 0 -19 -5 -15 -15 5 -13 2 -14 -17 -4 -20 11 -21 11 -8 -5 12 -15
12 -16 -5 -10 -10 4 -16 3 -11 -1 10 -12 -33 -56 -47 -48 -6 4 -5 -1 3 -10 11
-14 11 -20 1 -32 -7 -9 -19 -14 -25 -11 -8 3 -12 -5 -10 -25 1 -16 -1 -26 -6
-24 -4 3 -10 1 -14 -5 -3 -5 -2 -10 4 -10 10 0 10 -18 -2 -37 -4 -6 -1 -14 5
-16 10 -4 10 -6 0 -6 -7 -1 -11 -5 -8 -10 3 -4 -1 -17 -10 -27 -14 -18 -15
-18 -4 3 8 18 8 21 -2 18 -9 -4 -13 -26 -13 -69 0 -38 3 -62 9 -59 5 4 7 -1 3
-11 -4 -10 -3 -15 3 -11 6 4 9 14 8 22 -2 9 4 18 12 20 9 3 11 1 5 -4 -14 -11
-18 -56 -4 -47 8 4 8 0 0 -15 -7 -12 -8 -21 -4 -20 22 4 25 -3 7 -17 -16 -13
-16 -15 -2 -10 10 3 20 0 24 -6 4 -7 3 -8 -4 -4 -7 4 -12 2 -12 -3 0 -6 5 -11
10 -11 6 0 10 -7 10 -15 0 -8 5 -15 10 -15 6 0 10 -5 10 -11 0 -5 -4 -7 -10
-4 -5 3 -10 1 -10 -4 0 -6 10 -11 21 -11 16 0 20 -5 16 -19 -3 -15 0 -19 14
-16 12 2 16 -1 13 -10 -4 -10 0 -13 15 -10 18 3 20 1 10 -16 -9 -18 -8 -19 9
-10 14 8 24 6 38 -5 18 -14 18 -15 -3 -4 -13 6 -23 7 -23 1 0 -5 11 -12 25
-15 16 -4 23 -11 19 -18 -4 -7 -3 -8 4 -4 6 4 9 14 6 24 -2 9 2 4 10 -13 14
-27 22 -27 16 0 -1 6 4 4 11 -2 7 -7 23 -13 35 -13 12 0 27 -7 34 -15 15 -18
34 -9 25 12 -4 12 -2 13 8 5 10 -9 17 -8 25 0 8 8 12 8 12 2 0 -6 14 -11 30
-12 17 0 28 3 25 8 -3 5 -1 11 4 14 5 4 13 1 17 -5 5 -8 3 -9 -7 -4 -8 5 -11
4 -6 0 10 -11 68 -14 61 -3 -3 5 -9 6 -14 3 -5 -3 -12 0 -16 7 -4 7 -4 10 1 6
4 -4 14 -3 22 3 10 9 13 8 13 0 0 -7 5 -9 10 -6 6 4 8 11 5 16 -9 13 9 11 24
-3 10 -11 11 -9 5 6 -5 13 -4 17 4 12 7 -4 20 -2 29 4 14 9 14 10 2 7 -9 -3
-16 0 -16 7 0 8 9 11 24 8 13 -2 23 1 23 7 0 7 -5 9 -11 5 -8 -5 -10 4 -7 29
3 29 1 34 -9 25 -10 -8 -13 -6 -14 8 -1 11 -1 23 0 27 1 5 -3 6 -8 3 -5 -4
-12 -2 -16 4 -4 6 -11 8 -16 4 -5 -3 -7 -9 -4 -14 7 -11 -24 -22 -38 -13 -6 4
-8 1 -5 -8 4 -10 -1 -15 -15 -16 -11 -1 -24 -8 -28 -15 -7 -10 -9 -10 -10 2
-1 8 -1 19 0 23 1 5 -3 6 -8 3 -5 -4 -8 -19 -5 -34 l4 -27 -15 25 c-10 18 -14
21 -15 8 0 -11 -6 -16 -20 -13 -11 2 -20 -2 -20 -8 0 -8 -3 -8 -8 -2 -4 6 -18
12 -31 12 -13 1 -27 7 -31 13 -4 6 -17 12 -28 13 -12 1 -22 4 -22 8 0 4 -9 11
-20 14 -11 3 -20 13 -20 21 0 8 -4 12 -10 9 -6 -4 -7 1 -3 11 4 11 3 15 -5 10
-6 -3 -13 -2 -17 4 -10 16 -15 51 -7 46 4 -2 8 4 8 14 0 10 -3 17 -7 14 -4 -2
-13 4 -20 13 -12 15 -12 16 4 10 9 -3 17 -2 17 2 0 5 -6 11 -13 14 -7 3 -12
19 -11 41 1 21 -3 36 -10 36 -7 0 -7 3 1 8 7 4 11 18 8 30 -3 20 -2 21 18 11
21 -12 22 -11 4 8 -17 19 -17 22 -2 37 15 15 15 16 -2 17 -13 1 -11 3 7 9 14
4 19 8 11 9 -11 1 -11 4 -1 16 7 9 20 13 28 10 13 -5 13 -3 1 12 -9 11 -10 14
-1 9 7 -4 15 -1 18 9 4 9 13 14 22 10 13 -5 13 -3 1 12 -7 10 -9 15 -5 11 5
-4 15 -3 22 2 6 6 18 9 25 8 8 -2 13 2 12 7 -2 12 36 14 53 3 6 -4 14 -5 18
-1 11 11 57 12 50 1 -4 -6 3 -9 17 -7 21 2 99 -35 99 -48 0 -2 -4 -1 -10 2 -5
3 -10 1 -10 -5 0 -6 8 -10 18 -8 9 2 16 -2 14 -10 -2 -9 4 -9 21 3 13 8 27 12
32 8 4 -5 5 -2 1 5 -5 8 -13 9 -26 2 -13 -7 -19 -6 -23 4 -4 10 0 12 14 9 11
-3 19 0 19 6 0 7 5 9 13 5 7 -5 6 0 -3 11 -13 17 -13 18 0 13 21 -8 41 14 26
28 -6 6 -18 9 -26 6 -13 -3 -13 -2 0 7 13 10 13 12 0 20 -8 5 -19 7 -25 3 -5
-3 -4 1 3 10 10 13 9 15 -13 10 -23 -4 -31 4 -26 31 1 5 -3 6 -9 2 -6 -3 -8
-11 -5 -16 4 -5 1 -9 -4 -9 -6 0 -11 8 -11 18 0 13 -2 14 -9 4 -6 -10 -10 -8
-14 8 -3 12 -10 19 -16 16 -5 -4 -12 -2 -16 3 -3 6 -39 9 -80 8 -40 0 -71 -5
-69 -9 8 -12 -11 -9 -24 4 -8 8 -12 8 -12 1z m80 -15 c0 -9 3 -9 12 0 15 15
28 15 28 0 0 -6 -3 -8 -7 -5 -3 4 -12 2 -19 -4 -8 -6 -14 -7 -18 0 -4 6 -14 7
-23 4 -11 -4 -14 -3 -9 5 9 16 36 15 36 0z m105 2 c4 -6 11 -8 16 -5 5 4 9 2
9 -4 0 -5 -4 -13 -10 -16 -5 -3 -10 -2 -10 3 0 15 -37 21 -50 8 -8 -8 -10 -7
-5 7 8 18 40 23 50 7z m-432 -393 c4 3 7 4 7 1 0 -3 -10 -13 -22 -24 -19 -15
-20 -16 -9 -1 9 11 10 17 2 17 -6 0 -11 5 -11 11 0 8 4 9 13 0 8 -6 17 -8 20
-4z m548 -204 c13 -16 12 -17 -3 -4 -10 7 -18 15 -18 17 0 8 8 3 21 -13z
m-237 -169 c3 -8 2 -12 -4 -9 -6 3 -10 10 -10 16 0 14 7 11 14 -7z"/>
<path d="M879 3023 c-1 -5 -1 -10 -1 -13 0 -3 -6 -11 -14 -18 -8 -7 -14 -9
-14 -3 0 5 -7 12 -16 15 -10 4 -13 2 -8 -6 5 -8 2 -9 -9 -5 -9 3 -19 1 -23 -5
-4 -7 -3 -8 4 -4 7 4 12 2 12 -3 0 -6 -5 -11 -11 -11 -6 0 -3 -7 5 -16 18 -17
21 -28 6 -19 -13 8 -13 -1 1 -27 8 -15 8 -19 0 -14 -6 4 -11 2 -11 -3 0 -6 6
-11 13 -11 7 0 5 -5 -5 -10 -9 -6 -15 -18 -13 -28 2 -9 4 -21 4 -25 1 -5 5 -6
10 -3 10 6 9 -49 -1 -60 -4 -3 -5 5 -2 20 2 14 0 26 -5 26 -5 0 -8 -8 -6 -17
1 -10 -3 -24 -9 -32 -8 -11 -8 -13 1 -8 14 9 24 -5 28 -39 1 -15 -3 -24 -11
-24 -8 0 -14 -5 -14 -11 0 -6 6 -9 14 -6 18 7 15 -15 -4 -39 -9 -11 -10 -15
-2 -10 6 4 12 4 13 -1 0 -4 2 -18 3 -31 2 -18 -1 -21 -18 -16 -13 3 -17 2 -9
-3 7 -5 11 -19 8 -31 -2 -13 0 -20 6 -17 5 4 7 10 4 15 -3 5 -2 11 3 14 4 2 8
-8 7 -23 0 -16 -5 -27 -11 -24 -14 5 -14 -30 -1 -39 6 -3 11 -16 12 -27 1 -15
-2 -18 -10 -11 -8 7 -12 5 -12 -5 0 -8 7 -15 16 -15 13 0 13 -2 2 -9 -10 -6
-10 -10 -1 -16 8 -5 6 -13 -7 -28 -10 -11 -12 -17 -5 -13 6 4 12 4 13 -1 0 -4
2 -18 3 -31 2 -14 -2 -21 -9 -18 -6 2 -12 -2 -12 -9 0 -8 13 -12 38 -11 20 0
37 -3 36 -8 -1 -5 12 -10 30 -11 18 0 29 3 26 9 -4 5 1 7 9 3 13 -5 16 3 14
51 -1 31 -6 64 -11 72 -7 13 -6 13 7 2 8 -6 14 -23 12 -37 -1 -14 1 -23 5 -20
16 10 -6 88 -23 78 -6 -3 -1 4 12 16 24 24 31 41 8 22 -11 -9 -16 -9 -22 0 -5
8 -3 9 6 4 10 -6 12 -3 8 13 -5 16 -2 22 10 23 12 0 10 3 -5 9 -13 5 -23 12
-23 14 0 3 6 3 14 0 8 -3 17 0 22 7 4 7 3 10 -3 6 -6 -4 -13 -1 -16 7 -4 10 2
13 23 12 25 -2 27 0 18 17 -8 15 -7 18 4 11 7 -5 27 -9 43 -10 51 -2 55 -4 55
-18 0 -20 17 -29 26 -15 4 8 3 9 -4 5 -7 -4 -12 -2 -12 3 0 6 4 11 9 11 14 0
33 -28 27 -39 -4 -5 4 -17 16 -25 17 -12 24 -13 31 -3 6 9 7 8 4 -3 -2 -8 -13
-14 -23 -12 -18 2 -18 2 -1 -8 9 -6 15 -15 12 -21 -4 -5 -1 -9 5 -9 6 0 8 -4
5 -10 -6 -9 8 -14 28 -11 5 1 5 -8 2 -20 -5 -13 -3 -19 3 -15 5 3 13 -1 16
-10 3 -8 2 -12 -3 -9 -5 3 -13 0 -17 -7 -4 -7 -4 -10 1 -6 4 4 14 0 22 -10 10
-11 12 -12 8 -2 -4 8 1 6 10 -5 9 -11 14 -27 12 -37 -3 -10 3 -18 14 -21 13
-3 17 -1 12 6 -3 7 3 4 14 -6 15 -13 23 -15 28 -7 6 9 10 9 16 -1 6 -10 9 -10
9 -2 0 7 7 10 15 7 9 -4 15 0 16 7 0 8 4 5 9 -6 7 -17 9 -17 9 -2 1 9 7 17 14
17 9 0 9 2 -1 9 -8 4 -13 11 -13 15 3 22 -1 35 -20 54 -11 12 -25 19 -31 16
-7 -4 -8 -2 -4 5 4 6 13 8 19 5 7 -4 3 2 -8 13 -11 11 -24 18 -30 15 -5 -3 -4
1 3 9 15 17 16 33 0 23 -8 -5 -9 -2 -4 12 4 10 4 15 0 11 -4 -4 -13 -2 -21 4
-11 10 -11 15 -1 27 10 12 10 14 1 9 -7 -5 -21 1 -32 12 -11 11 -23 16 -27 13
-4 -4 -4 -2 0 5 3 6 2 14 -3 18 -15 9 -3 31 23 43 17 8 27 7 35 -1 9 -9 11 -8
6 5 -4 9 -2 25 5 35 9 16 10 15 5 -7 -5 -19 -4 -21 4 -10 6 8 15 16 21 16 5 1
12 2 15 3 3 0 1 10 -5 21 -9 16 -8 22 5 26 8 3 12 10 9 15 -3 5 -1 9 4 9 15 0
23 73 9 82 -9 6 -9 8 0 8 7 0 17 -8 23 -17 10 -16 11 -16 4 2 -4 11 -7 32 -8
47 0 14 -3 26 -6 25 -3 -1 -5 1 -5 5 0 4 -9 14 -20 23 -11 9 -15 14 -8 11 6
-4 14 -2 18 4 3 5 -3 10 -14 10 -19 0 -26 10 -22 33 0 4 -6 7 -15 7 -9 0 -12
5 -8 13 5 8 2 7 -9 -2 -15 -12 -17 -12 -11 3 4 9 3 16 -2 15 -21 -3 -28 2 -14
11 12 7 10 9 -7 7 -12 0 -19 -5 -17 -9 3 -4 -2 -5 -10 -2 -9 3 -14 9 -11 13 2
4 -3 8 -11 8 -8 0 -13 -6 -10 -13 3 -8 0 -11 -9 -7 -8 3 -12 9 -9 14 3 5 -2 9
-10 9 -9 0 -16 -5 -16 -11 0 -5 -5 -7 -10 -4 -8 5 -7 11 1 21 10 12 9 13 -5 8
-9 -3 -16 -13 -16 -22 0 -13 -3 -12 -16 4 -8 10 -13 14 -10 7 4 -6 1 -15 -5
-19 -8 -4 -9 -3 -5 4 4 7 2 12 -4 12 -6 0 -8 5 -4 12 4 7 3 8 -4 4 -7 -4 -12
-15 -12 -24 0 -13 -2 -13 -16 4 -8 10 -13 14 -10 7 4 -6 1 -15 -5 -19 -8 -4
-9 -3 -5 4 4 7 2 12 -4 12 -6 0 -8 5 -4 12 4 7 3 8 -4 4 -7 -4 -12 -14 -12
-23 0 -12 -3 -12 -17 4 -10 10 -14 13 -9 6 6 -10 4 -12 -8 -7 -10 4 -16 1 -16
-7 0 -11 -3 -11 -11 1 -8 11 -12 12 -16 3 -3 -10 -8 -9 -20 2 -14 14 -16 14
-28 -1 -9 -13 -14 -14 -20 -4 -6 9 -4 11 6 5 11 -7 12 -6 2 7 -7 8 -10 18 -6
21 3 4 3 7 0 7 -4 0 -8 -3 -8 -7z m-52 -58 c0 -8 -4 -12 -9 -9 -5 3 -6 10 -3
15 9 13 12 11 12 -6z m156 -79 c-4 -6 1 -5 10 3 11 9 17 10 17 2 0 -6 5 -11
11 -11 5 0 8 4 5 9 -7 10 20 9 30 -2 4 -4 13 -2 21 4 10 9 13 8 13 -1 0 -10 3
-10 15 0 12 10 15 10 15 0 0 -10 3 -10 15 0 12 10 15 10 15 -1 0 -10 3 -10 12
-1 17 17 25 15 31 -8 3 -11 11 -20 19 -20 10 0 9 3 -2 10 -10 7 -11 10 -2 10
7 0 17 -12 23 -27 7 -20 12 -24 18 -14 6 10 10 9 14 -4 4 -9 3 -13 -3 -10 -14
9 -12 -8 3 -24 10 -11 10 -13 0 -7 -7 4 -13 2 -13 -3 0 -6 8 -12 18 -12 15 -1
14 -2 -2 -6 -15 -4 -16 -7 -5 -14 12 -7 12 -9 -1 -9 -13 0 -13 -1 0 -10 11 -7
11 -10 2 -10 -7 0 -10 -4 -7 -10 3 -6 -1 -7 -9 -4 -11 4 -16 0 -16 -11 0 -10
5 -14 13 -9 7 4 9 3 4 -2 -5 -5 -12 -9 -15 -10 -4 0 -23 -8 -42 -16 -33 -15
-148 -16 -188 -3 -7 3 -10 1 -7 -4 12 -20 -13 -20 -31 0 -13 14 -19 36 -19 72
0 29 -4 58 -9 66 -7 10 -6 12 4 6 10 -6 12 -3 7 14 -4 17 -2 21 9 17 9 -3 12
-1 9 4 -3 6 -14 10 -23 11 -12 0 -10 3 7 10 13 5 21 15 18 22 -3 8 1 14 9 14
7 0 10 -5 7 -11z m-168 -35 c3 -5 2 -12 -3 -15 -5 -3 -9 1 -9 9 0 17 3 19 12
6z m578 -26 c4 -8 3 -16 -1 -19 -4 -3 -9 4 -9 15 -2 23 3 25 10 4z m-228 -343
c-3 -3 -11 0 -18 7 -9 10 -8 11 6 5 10 -3 15 -9 12 -12z m223 -157 c-3 -3 -9
2 -12 12 -6 14 -5 15 5 6 7 -7 10 -15 7 -18z m-468 -49 c0 -2 -8 -10 -17 -17
-16 -13 -17 -12 -4 4 13 16 21 21 21 13z"/>
<path d="M953 2765 c0 -8 4 -12 9 -9 5 3 6 10 3 15 -9 13 -12 11 -12 -6z"/>
<path d="M953 2695 c0 -8 4 -12 9 -9 5 3 6 10 3 15 -9 13 -12 11 -12 -6z"/>
<path d="M970 2671 c0 -6 4 -13 10 -16 6 -3 7 1 4 9 -7 18 -14 21 -14 7z"/>
<path d="M1096 2672 c-3 -4 4 -9 15 -9 23 -2 25 3 4 10 -8 4 -16 3 -19 -1z"/>
<path d="M2016 3007 c5 -16 3 -17 -14 -8 -15 8 -23 8 -28 -1 -4 -6 -3 -8 4 -4
6 3 13 2 17 -3 6 -10 -16 -8 -47 4 -17 7 -23 -3 -19 -27 0 -4 -9 -13 -22 -19
-18 -9 -20 -9 -9 2 6 7 12 18 12 24 0 5 -8 -2 -18 -18 -10 -15 -22 -24 -27
-20 -4 5 -6 1 -2 -9 6 -17 -21 -48 -42 -48 -7 0 -9 -5 -6 -10 4 -6 11 -7 17
-4 7 4 8 2 4 -5 -4 -6 -11 -9 -16 -6 -13 8 -18 -30 -7 -50 8 -15 7 -17 -9 -12
-15 6 -14 3 5 -13 13 -11 18 -20 11 -20 -7 0 -10 -7 -6 -16 3 -8 2 -13 -3 -10
-5 4 -7 -3 -4 -14 3 -11 9 -20 13 -20 4 0 11 -7 14 -16 6 -15 4 -15 -11 -3
-16 13 -17 12 -4 -4 8 -10 20 -16 27 -13 18 7 25 -5 12 -21 -9 -11 -7 -12 7
-7 13 5 16 4 11 -4 -5 -8 0 -12 13 -12 12 0 21 -5 21 -11 0 -7 9 -9 21 -6 16
4 19 2 15 -10 -4 -11 -2 -13 9 -9 10 3 15 -1 16 -12 0 -14 2 -14 8 2 7 18 8
18 14 2 4 -11 12 -14 19 -9 19 11 39 13 32 2 -3 -5 -11 -6 -17 -3 -7 4 -9 3
-4 -1 4 -5 25 -8 47 -8 26 0 40 -4 40 -12 0 -7 7 -16 16 -19 26 -10 29 -7 8 9
-18 14 -18 14 4 8 12 -3 22 -10 22 -15 0 -6 5 -6 14 1 11 9 15 8 20 -4 4 -11
2 -14 -7 -10 -6 4 -3 -1 7 -9 11 -9 23 -16 28 -16 4 0 4 -7 1 -17 -4 -10 -2
-14 5 -9 6 3 13 2 17 -4 3 -5 -2 -10 -11 -10 -14 0 -15 -3 -6 -12 9 -9 7 -15
-6 -25 -9 -8 -12 -12 -5 -9 6 4 15 1 19 -5 4 -7 3 -9 -4 -5 -6 3 -13 2 -17 -4
-3 -5 -15 -10 -26 -10 -10 0 -19 -5 -19 -11 0 -5 6 -7 13 -3 7 4 9 3 4 -2 -5
-5 -12 -9 -15 -9 -4 0 -12 -4 -19 -8 -6 -4 -15 -2 -19 4 -5 8 -3 9 6 4 9 -5
11 -4 6 4 -6 8 -12 9 -20 2 -7 -6 -16 -8 -19 -4 -4 3 -7 1 -7 -7 0 -9 -3 -10
-13 -1 -8 6 -16 8 -19 6 -9 -10 -49 -14 -43 -5 8 13 -17 18 -43 9 -23 -9 -40
9 -28 30 4 5 -6 7 -25 4 -21 -3 -29 -1 -24 6 4 8 -1 8 -19 1 -17 -6 -27 -6
-32 2 -5 7 -2 8 7 3 8 -5 11 -5 7 0 -4 4 -3 14 4 22 7 9 0 7 -21 -4 -21 -12
-30 -24 -27 -35 3 -12 -1 -15 -13 -11 -9 4 -13 3 -9 -2 4 -4 3 -14 -3 -21 -7
-8 -7 -14 1 -19 8 -5 5 -12 -7 -21 -15 -11 -15 -13 -2 -8 10 3 20 1 23 -5 4
-6 14 -7 23 -4 12 5 14 3 8 -8 -7 -11 -5 -11 10 1 15 12 17 12 10 1 -6 -11 -4
-13 8 -8 19 7 23 -9 5 -17 -9 -4 -8 -5 2 -5 8 1 33 1 55 0 30 -1 36 -4 25 -11
-8 -5 -10 -10 -5 -10 6 0 16 5 23 12 9 9 12 9 12 -3 0 -12 2 -12 10 1 7 10 10
11 11 3 3 -28 4 -32 11 -38 3 -4 5 5 4 19 -3 22 -1 24 16 15 10 -5 24 -6 31
-2 18 11 38 13 31 2 -3 -5 0 -9 6 -9 6 0 8 -5 4 -12 -4 -7 -3 -8 4 -4 7 4 12
2 12 -5 0 -7 3 -9 6 -6 4 4 1 13 -6 22 -7 8 -9 15 -4 16 48 5 64 5 64 -3 0 -5
7 -2 16 6 17 17 39 12 28 -6 -4 -7 -2 -8 4 -4 6 4 9 13 6 21 -4 10 0 13 15 10
19 -3 20 -1 10 17 -6 11 -7 18 -2 15 18 -11 63 -16 58 -6 -4 5 -12 7 -18 3 -7
-3 -4 1 7 10 11 9 15 20 10 28 -6 11 -5 11 8 0 14 -11 16 -10 14 12 -2 14 0
24 4 23 5 -1 8 2 8 6 1 5 9 16 19 24 14 11 14 14 2 10 -9 -3 -16 1 -16 9 0 8
5 13 11 11 7 -3 12 8 12 24 1 16 -3 29 -8 29 -5 0 -7 4 -3 9 3 5 1 12 -4 16
-6 3 -8 12 -5 19 3 8 -2 16 -13 19 -17 4 -17 5 0 6 10 0 15 6 12 11 -4 6 -11
8 -16 5 -5 -4 -9 1 -9 9 0 9 -5 16 -11 16 -7 0 -21 10 -32 23 l-19 22 6 -25
c6 -25 6 -25 -5 -2 -7 12 -16 22 -21 22 -5 0 -6 6 -2 13 5 8 2 8 -9 -2 -15
-12 -17 -11 -18 10 0 22 -1 23 -9 4 -6 -13 -9 -15 -9 -5 -1 13 -2 13 -11 0 -8
-12 -10 -12 -10 5 0 17 -2 17 -10 5 -5 -8 -10 -10 -10 -4 0 6 -6 11 -12 11 -7
0 -22 4 -33 8 l-20 8 20 -17 c20 -17 20 -17 -1 -7 -12 6 -25 7 -29 3 -3 -4 -6
-2 -5 3 1 6 2 17 1 25 -1 12 -4 11 -12 -3 -10 -18 -12 -18 -30 -1 -10 9 -19
13 -19 9 0 -5 -7 0 -16 11 -8 10 -13 12 -9 4 4 -10 2 -10 -8 2 -9 12 -17 14
-24 7 -7 -7 -10 -2 -8 15 2 15 -1 24 -5 21 -5 -3 -11 -1 -15 5 -3 5 -1 10 6
10 8 0 8 4 1 13 -7 8 -7 18 -2 27 5 8 6 19 2 25 -3 5 1 4 10 -3 13 -10 15 -9
10 13 -2 15 0 25 7 25 7 0 9 -6 6 -12 -4 -7 1 -4 9 6 9 11 16 16 16 12 0 -5 7
-3 16 5 19 16 53 19 61 6 4 -6 1 -7 -7 -2 -9 6 -11 4 -5 -5 6 -10 11 -9 22 5
7 11 13 13 13 7 0 -7 5 -12 11 -12 5 0 7 4 4 10 -3 6 1 7 9 4 9 -3 13 -11 9
-18 -3 -6 -1 -6 8 2 16 14 33 16 24 2 -8 -13 1 -13 28 1 12 7 19 8 15 4 -8 -9
14 -35 25 -28 4 2 7 -1 7 -7 0 -6 5 -8 12 -4 7 5 9 2 6 -8 -4 -9 0 -15 8 -15
8 0 14 4 14 8 0 5 7 5 17 2 12 -5 14 -3 8 7 -6 10 -1 11 21 6 23 -5 26 -4 11
4 -15 10 -16 14 -3 31 16 24 11 55 -11 64 -14 5 -14 3 -2 -12 12 -15 11 -15
-13 1 -16 10 -28 22 -28 27 0 5 -9 9 -20 9 -11 0 -20 6 -20 13 0 8 -3 7 -10
-3 -8 -13 -11 -13 -22 -1 -7 8 -8 11 -2 8 6 -3 11 0 11 8 0 21 -12 19 -23 -4
-9 -18 -10 -18 -29 2 -11 11 -15 17 -8 13 6 -3 14 -3 17 2 2 4 -6 8 -19 8 -21
0 -22 -3 -13 -20 9 -18 9 -19 -3 -10 -8 6 -24 10 -36 8 -12 -2 -24 0 -27 5 -3
4 6 7 19 5 14 -1 25 1 25 5 0 5 -27 8 -60 7 -53 -1 -59 -3 -54 -19z m34 -8 c0
-6 -4 -7 -10 -4 -5 3 -10 11 -10 16 0 6 5 7 10 4 6 -3 10 -11 10 -16z m24 5
c3 -8 2 -12 -4 -9 -6 3 -10 10 -10 16 0 14 7 11 14 -7z m-124 -24 c0 -5 -5
-10 -11 -10 -5 0 -7 5 -4 10 3 6 8 10 11 10 2 0 4 -4 4 -10z m-130 -630 c0 -5
-5 -10 -11 -10 -5 0 -7 5 -4 10 3 6 8 10 11 10 2 0 4 -4 4 -10z m10 -40 c0 -5
-2 -10 -4 -10 -3 0 -8 5 -11 10 -3 6 -1 10 4 10 6 0 11 -4 11 -10z"/>
<path d="M2509 3008 c-11 -20 -13 -20 -24 -5 -11 15 -13 16 -19 2 -3 -8 -9
-14 -13 -14 -4 1 -16 -1 -26 -6 -17 -7 -17 -8 0 -22 10 -8 13 -12 7 -9 -7 3
-15 -1 -18 -10 -3 -8 -2 -13 3 -10 11 7 23 -22 15 -35 -3 -5 0 -8 8 -7 8 2 12
-5 11 -17 -1 -11 0 -14 3 -7 3 6 11 9 16 6 6 -4 8 -2 4 4 -9 15 7 23 24 12 9
-5 20 -4 29 3 12 10 13 9 7 -1 -6 -11 -1 -12 23 -9 24 4 37 0 53 -16 l22 -22
-17 27 -17 27 38 -16 c38 -15 61 -31 30 -20 -20 7 -25 -8 -5 -16 7 -2 12 -21
11 -43 0 -22 4 -45 9 -51 6 -9 4 -15 -7 -19 -11 -4 -13 -11 -7 -22 4 -10 7
-34 6 -54 -1 -21 3 -38 9 -38 6 0 5 -4 -2 -9 -8 -4 -14 -12 -14 -16 0 -4 6
-12 14 -17 8 -6 5 -7 -12 -2 -22 6 -23 5 -12 -9 19 -22 25 -67 10 -67 -8 -1
-5 -7 7 -17 16 -13 17 -15 3 -10 -10 4 -18 3 -18 0 0 -4 8 -15 18 -26 9 -11
11 -17 5 -13 -9 5 -13 -2 -13 -26 0 -19 6 -40 13 -47 7 -8 7 -11 1 -8 -7 4
-14 -2 -17 -13 -3 -11 -1 -18 4 -14 5 3 9 0 9 -5 0 -6 -4 -11 -9 -11 -5 0 -12
-7 -15 -16 -3 -8 -2 -13 3 -10 5 3 14 -1 21 -9 11 -13 10 -14 -6 -9 -15 4 -16
4 -5 -4 8 -6 20 -8 28 -5 7 3 13 -1 13 -8 0 -11 3 -11 10 1 5 8 10 10 10 4 0
-6 7 -11 15 -11 8 0 12 5 8 10 -3 5 9 7 30 4 33 -4 35 -3 31 22 -3 14 -7 32
-9 39 -3 7 2 15 10 18 8 4 12 10 9 15 -3 5 -11 6 -17 2 -9 -5 -9 -3 0 8 10 12
10 18 0 29 -10 10 -9 12 4 7 10 -3 16 1 16 9 0 9 -6 13 -16 9 -12 -5 -12 -2 2
13 21 23 23 39 2 22 -12 -10 -13 -7 -4 22 18 59 19 70 6 65 -7 -3 -13 3 -13
14 0 11 4 15 11 9 7 -6 11 -2 11 10 0 10 -3 17 -7 14 -4 -2 -10 3 -13 12 -4 9
-2 13 5 8 7 -4 10 -1 7 7 -3 8 -11 13 -17 11 -7 -1 -9 2 -6 8 4 6 13 9 19 7 7
-3 13 1 13 9 0 9 -6 13 -15 9 -12 -4 -13 -3 -3 9 20 24 21 69 3 90 -10 11 -12
16 -5 13 6 -4 14 -3 18 3 6 9 -8 14 -28 11 -5 -1 -5 3 -2 9 4 6 13 9 20 6 8
-3 12 2 10 12 -1 9 3 21 9 25 7 6 6 7 -4 4 -8 -2 -14 -10 -12 -16 1 -7 -2 -10
-8 -6 -13 8 -13 11 6 29 9 9 11 16 4 16 -6 0 -8 5 -5 10 4 6 11 7 17 4 6 -4
18 2 26 12 14 18 14 18 9 -4 -5 -20 -3 -21 10 -10 18 15 74 18 65 4 -3 -5 3
-6 13 -3 9 4 24 2 31 -4 12 -9 13 -9 9 3 -4 9 0 15 9 15 8 0 13 -3 11 -7 -2
-3 6 -7 18 -7 17 -2 19 0 7 7 -13 8 -12 12 4 27 18 16 19 16 7 1 -9 -12 -10
-18 -2 -18 6 0 11 3 12 8 6 47 4 67 -11 82 -18 18 -51 34 -47 22 1 -4 -2 -8
-8 -9 -5 -1 -9 6 -7 15 2 12 -3 10 -16 -7 -14 -18 -21 -21 -27 -11 -5 9 -4 11
3 6 18 -11 14 0 -5 15 -14 12 -16 12 -8 0 6 -11 4 -13 -8 -8 -10 3 -17 2 -17
-3 0 -6 -5 -10 -11 -10 -5 0 -7 6 -3 13 6 9 4 9 -7 2 -8 -6 -78 -10 -169 -9
-85 1 -160 -3 -166 -7 -14 -11 -39 15 -29 31 3 5 4 10 1 10 -3 0 -11 -10 -17
-22z m-38 -31 c-10 -9 -11 -8 -5 6 3 10 9 15 12 12 3 -3 0 -11 -7 -18z m-21 3
c0 -5 -5 -10 -11 -10 -5 0 -7 5 -4 10 3 6 8 10 11 10 2 0 4 -4 4 -10z m607
-35 c0 -8 -4 -12 -9 -9 -5 3 -6 10 -3 15 9 13 12 11 12 -6z m-237 -215 c0 -5
-2 -10 -4 -10 -3 0 -8 5 -11 10 -3 6 -1 10 4 10 6 0 11 -4 11 -10z m-5 -29 c3
-5 2 -12 -3 -15 -5 -3 -9 1 -9 9 0 17 3 19 12 6z m5 -185 c0 -3 -4 -8 -10 -11
-5 -3 -10 -1 -10 4 0 6 5 11 10 11 6 0 10 -2 10 -4z"/>
<path d="M3216 3022 c-3 -2 -2 -10 0 -16 3 -7 -2 -13 -10 -13 -8 0 -12 7 -9
16 2 9 -1 7 -8 -4 -17 -29 -17 -29 -31 -17 -10 8 -13 3 -15 -19 -2 -20 2 -27
9 -23 7 4 8 3 4 -5 -4 -6 -12 -9 -17 -6 -5 4 -9 1 -9 -4 0 -6 6 -11 13 -11 8
0 7 -4 -3 -10 -13 -8 -13 -10 0 -10 11 0 11 -3 2 -12 -15 -15 -15 -28 -1 -28
5 0 7 5 3 12 -5 7 -3 8 6 3 10 -6 9 -11 -5 -22 -14 -9 -15 -13 -4 -13 12 0 12
-2 -1 -10 -13 -8 -13 -10 0 -10 11 0 11 -3 2 -12 -15 -15 -15 -28 -1 -28 5 0
7 5 3 12 -5 7 -3 8 6 3 10 -6 9 -11 -5 -22 -14 -9 -15 -13 -4 -13 12 0 12 -2
-1 -10 -13 -8 -13 -10 -1 -10 12 0 12 -3 3 -12 -15 -15 -15 -28 -1 -28 5 0 7
5 3 12 -5 7 -3 8 6 3 11 -7 11 -10 -2 -19 -15 -9 -15 -11 -1 -21 13 -10 13
-14 3 -20 -9 -6 -11 -4 -5 6 5 8 4 11 0 6 -13 -12 -16 -47 -4 -47 5 0 7 5 3
12 -5 7 -3 8 6 3 10 -6 9 -11 -5 -22 -14 -9 -15 -13 -4 -13 12 0 12 -2 -1 -10
-13 -8 -13 -10 0 -10 11 0 11 -3 2 -12 -15 -15 -15 -28 -1 -28 5 0 7 5 3 12
-5 7 -3 8 6 3 10 -6 10 -10 -3 -20 -14 -10 -14 -12 1 -21 13 -9 13 -12 2 -19
-9 -6 -11 -4 -5 6 5 8 4 11 0 6 -13 -12 -16 -47 -4 -47 5 0 7 5 3 12 -5 7 -3
8 6 3 10 -6 9 -11 -5 -22 -14 -9 -15 -13 -4 -13 12 0 12 -2 -1 -10 -13 -8 -13
-10 0 -10 11 0 11 -3 2 -12 -15 -15 -15 -28 -1 -28 5 0 7 5 3 12 -5 7 -3 8 6
3 10 -6 9 -11 -5 -22 -14 -9 -15 -13 -4 -13 12 0 12 -2 -1 -10 -12 -8 -12 -10
-1 -10 11 0 11 -3 1 -15 -10 -12 -10 -18 0 -30 6 -8 9 -24 5 -37 -3 -13 -3
-18 2 -13 4 6 22 11 38 13 23 2 27 1 15 -7 -9 -7 -10 -11 -3 -11 6 0 15 5 19
11 4 8 9 7 15 -2 7 -12 9 -12 9 0 0 8 7 11 20 8 11 -3 20 -1 20 5 0 5 5 6 12
2 7 -4 8 -3 4 5 -4 6 -13 8 -19 5 -7 -4 -1 5 12 19 22 24 21 31 -1 29 -3 -1
-9 5 -12 14 -4 9 2 18 17 24 22 9 22 9 -3 11 -16 1 -19 3 -8 6 25 6 29 29 8
50 -17 19 -17 20 2 32 11 7 16 17 11 24 -4 6 -8 20 -8 30 -1 10 -7 22 -14 27
-10 5 -9 9 4 14 9 3 13 10 10 16 -3 5 0 10 7 10 7 1 3 6 -9 13 l-23 12 21 13
c15 10 18 16 10 26 -6 7 -8 16 -4 20 4 4 -1 4 -11 0 -14 -5 -17 -4 -12 4 4 7
15 12 24 13 11 1 8 4 -8 9 -15 5 -18 8 -9 9 25 2 30 26 9 48 -17 19 -17 20 2
32 11 7 16 17 11 24 -4 6 -8 20 -8 30 -1 10 -7 22 -14 27 -10 5 -9 9 4 14 9 3
13 10 10 16 -3 5 0 10 7 10 8 0 9 3 3 8 -13 9 -20 46 -7 38 5 -3 9 1 9 9 0 10
-5 11 -18 5 -15 -9 -17 -6 -14 20 2 16 0 32 -5 35 -6 4 -7 -1 -3 -11 5 -12 3
-15 -6 -9 -8 4 -17 2 -22 -6 -7 -12 -9 -11 -9 2 0 8 5 20 10 25 7 7 6 11 -5
11 -8 0 -17 -2 -19 -5z m74 -192 c0 -5 -5 -10 -11 -10 -5 0 -7 5 -4 10 3 6 8
10 11 10 2 0 4 -4 4 -10z m5 -29 c3 -5 2 -12 -3 -15 -5 -3 -9 1 -9 9 0 17 3
19 12 6z m-6 -65 c9 -11 9 -16 -1 -22 -7 -4 -10 -4 -6 1 4 4 3 14 -3 22 -6 7
-9 13 -6 13 2 0 10 -6 16 -14z m6 -95 c3 -5 2 -12 -3 -15 -5 -3 -9 1 -9 9 0
17 3 19 12 6z m-5 -131 c0 -5 -5 -10 -11 -10 -5 0 -7 5 -4 10 3 6 8 10 11 10
2 0 4 -4 4 -10z m5 -29 c3 -5 2 -12 -3 -15 -5 -3 -9 1 -9 9 0 17 3 19 12 6z
m-6 -65 c9 -11 9 -16 -1 -22 -7 -4 -10 -4 -6 1 4 4 3 14 -3 22 -6 7 -9 13 -6
13 2 0 10 -6 16 -14z m6 -106 c-3 -5 -12 -10 -18 -10 -7 0 -6 4 3 10 19 12 23
12 15 0z"/>
<path d="M3996 3017 c3 -10 9 -15 12 -12 3 3 0 11 -7 18 -10 9 -11 8 -5 -6z"/>
<path d="M4472 3016 c-9 -5 -23 -17 -30 -25 -11 -13 -12 -13 -6 -1 6 11 2 11
-12 -2 -16 -14 -23 -15 -32 -6 -9 9 -11 7 -8 -9 4 -16 0 -20 -20 -17 -13 1
-22 -2 -18 -7 3 -5 -2 -12 -10 -15 -9 -3 -13 -11 -9 -18 4 -6 -1 -5 -10 3 -15
12 -17 12 -11 -3 4 -10 1 -16 -9 -16 -9 0 -19 -5 -23 -12 -5 -7 -2 -9 7 -4 8
4 7 2 -2 -6 -9 -7 -15 -21 -13 -31 1 -9 -2 -15 -7 -11 -5 3 -14 2 -20 -2 -8
-4 -7 -9 2 -15 11 -7 10 -9 -4 -9 -14 0 -16 -4 -9 -16 7 -12 4 -22 -10 -36
-10 -10 -16 -24 -12 -30 13 -21 5 -72 -13 -87 -16 -12 -16 -13 0 -8 16 6 22
-3 18 -27 -1 -4 4 -15 10 -23 7 -8 8 -13 3 -12 -26 5 -35 -1 -22 -15 7 -8 17
-11 22 -8 5 3 6 0 2 -7 -6 -9 -12 -9 -24 1 -10 7 -3 -3 13 -22 17 -19 23 -29
15 -23 -12 9 -15 7 -17 -14 -1 -20 1 -23 9 -12 7 10 9 8 5 -9 -3 -12 -1 -20 3
-17 5 3 14 -5 21 -17 11 -21 11 -22 -4 -9 -10 8 -17 9 -17 3 0 -6 9 -14 21
-17 11 -4 18 -9 15 -13 -3 -3 3 -12 14 -19 15 -11 19 -21 14 -36 -5 -18 -4
-20 7 -9 14 13 30 16 28 5 -5 -33 2 -43 27 -37 21 5 25 4 19 -6 -6 -10 -4 -12
10 -6 16 6 16 4 4 -10 -13 -16 -12 -16 11 -4 24 13 24 12 10 -5 -14 -17 -14
-17 7 -7 12 7 24 8 27 3 3 -5 19 -7 36 -6 16 1 27 -1 24 -6 -7 -12 17 -11 35
0 10 7 25 3 45 -12 22 -15 27 -16 17 -4 -7 9 -10 17 -5 18 5 0 19 2 32 3 12 2
22 0 22 -4 0 -4 6 -7 14 -7 9 0 12 6 8 16 -5 14 -3 14 11 2 14 -11 18 -11 23
3 3 9 12 16 19 16 7 0 16 7 19 16 5 14 9 14 23 3 14 -12 16 -12 8 0 -6 11 -4
13 8 8 12 -4 14 -2 10 10 -5 12 -2 15 9 10 12 -4 14 -1 11 14 -3 11 0 19 6 19
7 0 9 -5 5 -12 -5 -7 -3 -8 5 -4 7 5 10 14 7 22 -3 8 1 14 9 14 8 0 15 7 15
16 0 9 5 12 12 8 7 -4 8 -3 4 5 -4 6 -2 19 5 27 10 13 10 17 -2 25 -10 6 -11
9 -1 9 7 0 11 4 7 9 -3 5 0 13 6 17 8 4 9 3 5 -4 -4 -7 -2 -12 3 -12 14 0 14
23 0 37 -9 9 -6 11 12 7 13 -2 18 -2 12 2 -7 3 -13 14 -13 24 0 10 6 21 13 23
9 4 8 6 -2 6 -11 1 -11 4 0 18 10 11 10 14 2 9 -16 -9 -17 6 -2 21 8 8 8 13 0
17 -8 5 -8 13 -1 26 7 13 7 21 -2 26 -7 5 -8 3 -3 -7 5 -8 4 -11 -1 -6 -14 13
-11 30 6 45 8 7 11 12 5 11 -5 -1 -17 -1 -25 0 -13 1 -13 2 0 11 10 6 11 10 3
10 -7 0 -13 12 -13 26 0 19 -4 25 -15 20 -8 -3 -15 -1 -15 4 0 6 5 10 11 10 8
0 8 5 -1 15 -7 8 -9 15 -6 15 4 0 1 6 -6 14 -7 8 -16 12 -20 10 -4 -2 -10 1
-14 7 -4 8 -3 9 4 5 7 -4 12 -2 12 3 0 6 -6 11 -12 11 -7 0 -28 14 -46 31 -17
16 -37 27 -42 24 -6 -3 -7 1 -4 9 4 12 0 16 -16 16 -14 0 -19 4 -14 13 5 7 0
6 -11 -3 -10 -8 -16 -10 -12 -4 4 7 0 15 -9 18 -8 3 -12 2 -9 -3 3 -5 1 -12
-5 -16 -5 -3 -10 1 -10 10 0 13 -4 14 -22 4 -22 -11 -22 -11 -6 7 16 19 16 20
-2 20 -10 0 -16 -4 -14 -8 3 -4 0 -8 -5 -8 -6 0 -11 4 -11 8 0 11 -97 10 -118
-2z m41 -7 c-4 -4 -19 -10 -33 -13 -23 -6 -23 -6 -8 7 17 14 56 20 41 6z m61
2 c3 -4 -4 -7 -14 -6 -27 2 -33 10 -10 12 11 1 22 -2 24 -6z m-30 -113 c-5 -7
-2 -8 7 -3 24 16 48 13 41 -4 -5 -14 -3 -14 11 -2 11 9 17 10 17 2 0 -6 5 -11
11 -11 5 0 7 5 3 11 -12 20 30 -8 46 -30 8 -12 20 -21 27 -21 6 0 15 -5 19
-12 4 -7 3 -8 -4 -4 -7 4 -12 4 -12 -1 1 -12 26 -43 35 -43 4 0 2 6 -4 14 -9
11 -9 16 0 22 7 4 9 3 5 -4 -3 -6 -2 -13 3 -17 6 -3 8 -12 5 -20 -4 -8 -11
-12 -17 -8 -6 4 -7 1 -3 -6 5 -7 17 -16 28 -20 19 -7 19 -8 3 -24 -12 -12 -13
-17 -3 -17 16 0 18 -61 3 -72 -6 -5 -5 -8 3 -8 6 0 12 -5 12 -11 0 -5 -5 -7
-11 -3 -8 5 -8 1 0 -14 14 -27 14 -35 -1 -26 -10 6 -10 4 -2 -7 9 -13 11 -30
4 -44 -1 -3 -4 -9 -5 -15 -1 -5 -4 -13 -5 -17 -1 -5 -2 -12 -1 -16 1 -5 -3 -6
-9 -2 -5 3 -10 1 -10 -5 0 -6 -4 -9 -9 -5 -5 3 -13 0 -17 -6 -4 -8 -3 -9 4 -5
7 4 12 1 12 -7 0 -21 -12 -28 -27 -15 -8 6 -13 7 -12 2 4 -21 -2 -35 -11 -29
-5 3 -10 -1 -10 -9 0 -20 -19 -30 -52 -28 -14 1 -30 -3 -33 -8 -5 -8 -11 -7
-21 1 -11 9 -14 9 -14 -1 0 -10 -3 -10 -15 0 -11 9 -18 10 -29 1 -11 -9 -15
-8 -20 4 -4 11 -2 14 6 9 7 -5 8 -3 3 5 -5 9 -10 10 -18 2 -18 -18 -31 -13
-16 6 10 11 10 14 2 9 -7 -4 -13 -2 -13 3 0 6 -9 11 -20 11 -18 0 -26 17 -21
44 1 5 -6 3 -15 -5 -10 -8 -15 -9 -11 -2 4 6 1 14 -5 16 -10 4 -9 8 2 16 12 9
11 11 -9 11 -23 0 -24 1 -6 13 14 11 15 16 5 22 -9 6 -11 4 -5 -5 5 -9 4 -11
-4 -6 -6 4 -8 13 -4 19 11 18 12 38 2 31 -5 -3 -7 -10 -4 -15 4 -5 -2 -6 -11
-2 -11 4 -13 8 -6 11 15 5 16 72 2 72 -7 0 -7 6 0 20 6 11 8 32 6 46 -5 25 15
70 26 59 2 -3 2 9 0 26 -4 29 -3 31 19 24 13 -3 20 -3 14 2 -18 15 -17 36 1
29 14 -5 15 -4 5 8 -11 13 -9 15 8 11 13 -2 18 1 15 10 -3 7 0 16 7 21 8 5 10
3 4 -7 -7 -11 -6 -12 7 -2 8 7 18 10 22 6 4 -4 4 1 0 11 -6 15 -3 17 13 12 12
-4 25 -1 33 9 13 16 34 10 24 -7z m-323 -161 c-10 -9 -11 -8 -5 6 3 10 9 15
12 12 3 -3 0 -11 -7 -18z"/>
<path d="M4520 2895 c-7 -9 -8 -15 -2 -15 5 0 12 7 16 15 3 8 4 15 2 15 -2 0
-9 -7 -16 -15z"/>
<path d="M4356 2722 c-5 -9 -2 -39 5 -46 3 -3 5 8 4 24 0 32 -1 35 -9 22z"/>
<path d="M4350 2628 c0 -4 4 -8 9 -8 6 0 12 4 15 8 3 5 -1 9 -9 9 -8 0 -15 -4
-15 -9z"/>
<path d="M4744 2502 c3 -5 0 -13 -6 -15 -9 -4 -10 -6 -1 -6 17 -1 25 16 12 25
-7 4 -9 3 -5 -4z"/>
<path d="M1572 3016 c4 -4 2 -14 -5 -21 -9 -10 -14 -10 -22 1 -8 11 -10 9 -11
-11 -1 -14 2 -22 7 -19 5 3 6 -2 3 -10 -3 -9 -9 -14 -13 -11 -10 6 -7 -33 4
-42 4 -5 5 -2 1 5 -4 6 -2 12 4 12 7 0 9 -7 6 -16 -3 -9 -6 -17 -6 -20 0 -2
-8 -1 -17 2 -15 5 -15 4 -4 -4 12 -9 13 -13 1 -27 -7 -9 -9 -15 -4 -13 9 3 14
-4 14 -23 0 -5 -5 -7 -12 -3 -7 4 -8 3 -4 -5 4 -6 12 -9 17 -6 12 8 11 -2 -2
-27 -8 -15 -8 -19 0 -14 6 4 11 3 11 -3 0 -5 -8 -15 -17 -21 -16 -10 -16 -10
3 -5 14 3 21 1 21 -8 0 -9 -8 -13 -21 -11 -12 3 -15 2 -8 -2 6 -3 10 -10 7
-15 -4 -5 2 -6 12 -2 15 5 16 3 6 -8 -15 -16 -17 -33 -3 -24 6 3 7 -1 4 -9 -3
-9 -10 -14 -14 -11 -5 3 -12 0 -16 -6 -5 -8 -3 -9 6 -4 10 6 12 4 7 -7 -3 -9
-1 -20 4 -25 7 -7 4 -17 -8 -29 -17 -17 -17 -18 1 -11 14 6 17 4 12 -9 -3 -8
-6 -18 -6 -20 0 -3 -5 -2 -12 2 -7 4 -8 3 -4 -5 4 -6 12 -8 18 -5 6 4 8 -1 3
-16 -4 -13 -3 -20 2 -17 5 4 10 0 10 -7 0 -8 -7 -12 -16 -9 -11 3 -10 0 3 -11
18 -14 15 -20 -6 -17 -4 0 -5 -6 -2 -14 4 -8 10 -12 15 -9 5 3 6 -2 3 -10 -3
-8 -13 -12 -22 -9 -14 4 -14 3 -3 -5 13 -9 13 -13 0 -28 -8 -10 -9 -15 -3 -11
7 4 18 -1 25 -10 12 -14 12 -16 0 -8 -11 7 -13 1 -8 -29 3 -20 2 -34 -3 -31
-5 3 -12 1 -15 -5 -4 -6 -1 -9 7 -8 7 2 12 -2 11 -9 -2 -7 8 -10 26 -7 16 3
32 0 36 -6 5 -8 11 -8 21 1 11 9 14 9 14 -1 0 -10 3 -10 15 0 8 6 19 9 25 5 6
-4 10 -3 9 2 -4 21 2 34 13 27 7 -4 8 -3 4 5 -4 6 -11 9 -15 7 -4 -3 -8 1 -8
9 0 8 4 12 8 9 4 -2 11 1 15 7 4 8 3 9 -4 5 -6 -4 -16 4 -23 16 -11 20 -10 21
3 11 12 -11 14 -7 13 25 -1 20 3 44 9 52 9 13 9 13 -5 2 -14 -11 -16 -9 -16
13 0 13 3 22 8 19 5 -3 9 0 9 5 0 6 -6 11 -12 11 -9 0 -8 4 2 10 13 8 13 10
-2 10 -11 0 -15 5 -12 15 4 8 10 12 15 9 5 -3 9 0 9 5 0 6 -6 11 -12 11 -10 0
-9 3 1 9 11 7 11 9 0 14 -11 4 -11 6 0 6 11 1 10 5 -5 17 -16 13 -16 15 -2 10
10 -3 20 -1 23 5 4 5 3 9 -2 8 -20 -3 -27 2 -13 11 10 6 11 10 3 10 -7 0 -13
5 -13 11 0 5 4 8 8 5 5 -3 9 1 9 9 0 8 -4 12 -9 9 -4 -3 -8 -1 -8 5 0 5 6 12
13 14 10 4 10 6 0 6 -7 1 -13 6 -13 12 0 5 6 7 13 3 7 -5 6 0 -3 11 -9 11 -10
16 -2 11 6 -4 12 -3 12 3 0 5 -8 11 -17 13 -15 3 -15 4 1 21 12 12 14 17 4 17
-10 0 -10 2 1 9 11 7 11 9 0 14 -11 4 -11 6 0 6 11 1 10 5 -5 17 -16 13 -16
15 -1 10 9 -3 17 -1 17 4 0 6 -4 10 -8 10 -4 0 -8 9 -9 20 -1 11 2 18 6 16 4
-3 8 1 8 9 0 8 -4 12 -9 9 -4 -3 -8 0 -8 5 0 6 4 11 8 11 5 0 8 13 8 29 0 17
-3 28 -8 25 -5 -3 -5 -10 -2 -16 4 -7 2 -8 -4 -4 -9 5 -9 13 -1 29 l12 22 -23
-20 -23 -20 12 23 12 23 -28 -18 c-26 -16 -27 -16 -14 0 12 15 12 17 -3 11 -9
-3 -24 0 -34 7 -9 7 -14 10 -10 5z m98 -740 c0 -2 -7 -7 -16 -10 -8 -3 -12 -2
-9 4 6 10 25 14 25 6z"/>
<path d="M2535 3011 c-3 -5 0 -13 6 -17 7 -4 9 -3 5 4 -3 5 0 13 6 15 9 4 10
6 1 6 -6 1 -14 -3 -18 -8z"/>
<path d="M3535 3010 c3 -5 8 -10 11 -10 2 0 4 5 4 10 0 6 -5 10 -11 10 -5 0
-7 -4 -4 -10z"/>
<path d="M3972 3015 c6 -10 -16 -36 -28 -34 -3 0 -9 -3 -12 -7 -4 -4 -1 -4 6
0 13 8 17 -6 5 -18 -4 -3 -8 -22 -9 -41 -1 -29 1 -33 12 -24 19 16 18 4 -2
-15 -11 -11 -12 -16 -3 -16 7 0 2 -12 -12 -27 -19 -22 -19 -24 -3 -10 19 16
22 16 28 2 3 -9 2 -13 -4 -10 -6 3 -10 3 -11 -2 0 -4 -2 -19 -5 -32 -3 -19 -1
-21 9 -13 10 8 13 6 13 -9 0 -12 -5 -18 -13 -15 -7 3 -13 1 -13 -4 0 -6 5 -10
10 -10 7 0 7 -6 0 -20 -7 -14 -7 -20 0 -20 5 0 10 -5 10 -11 0 -5 -4 -8 -9 -5
-11 7 -8 -21 4 -31 4 -4 5 -2 0 6 -6 10 -4 12 4 7 9 -6 8 -13 -6 -29 -10 -11
-13 -17 -7 -14 15 9 26 -31 12 -40 -6 -3 -8 -1 -4 5 3 6 2 13 -3 17 -6 3 -8
-6 -5 -21 3 -18 1 -23 -7 -18 -8 4 -9 3 -5 -5 6 -9 11 -9 21 -1 17 14 15 -6
-4 -35 -9 -15 -11 -16 -7 -2 3 11 0 17 -9 17 -9 0 -29 14 -47 30 -17 17 -27
30 -23 30 4 0 2 7 -5 15 -7 8 -17 12 -23 8 -6 -3 -7 -1 -3 6 4 6 12 9 17 6 5
-4 9 -1 9 4 0 6 -9 11 -20 11 -13 0 -20 7 -20 20 0 11 -5 20 -11 20 -5 0 -7 6
-3 13 6 9 5 9 -8 0 -20 -17 -30 -5 -16 21 11 20 10 20 -7 6 -10 -8 -16 -10
-12 -3 4 6 3 14 -3 18 -6 4 -8 11 -5 16 4 5 -1 9 -9 9 -8 0 -18 4 -21 10 -4 6
1 7 12 4 13 -5 12 -2 -5 10 -13 10 -19 22 -15 29 4 7 -1 6 -11 -2 -9 -8 -16
-10 -15 -5 4 24 -2 36 -16 30 -13 -5 -14 -2 -4 15 6 11 8 23 5 27 -3 3 -6 0
-6 -7 0 -7 -5 -9 -10 -6 -6 4 -8 11 -4 16 3 5 2 9 -3 8 -20 -4 -33 2 -33 15 0
8 -6 17 -12 19 -10 4 -10 6 0 6 7 1 15 -6 18 -14 4 -8 11 -15 17 -15 5 0 2 9
-8 20 -10 11 -24 20 -32 20 -8 0 -12 4 -8 9 3 5 -4 12 -15 16 -11 3 -20 11
-20 16 0 6 -4 8 -9 5 -5 -3 -11 0 -14 8 -9 22 -77 9 -77 -15 0 -6 6 -7 13 -3
9 6 9 5 0 -7 -7 -9 -14 -24 -16 -35 -1 -10 -6 -24 -10 -31 -4 -6 -2 -15 4 -19
8 -5 9 -3 4 6 -5 9 -4 11 4 6 15 -10 3 -29 -15 -22 -8 3 -11 0 -7 -10 3 -8 12
-13 19 -10 8 3 14 1 14 -4 0 -6 -5 -10 -11 -10 -5 0 -8 -4 -5 -9 4 -5 0 -12
-6 -14 -10 -4 -10 -6 0 -6 6 -1 12 -6 12 -12 0 -5 -6 -7 -12 -3 -10 6 -10 4 0
-8 16 -20 25 -61 11 -53 -5 4 -7 10 -5 14 3 4 -1 8 -9 8 -10 0 -12 -4 -5 -12
5 -7 7 -15 3 -18 -3 -4 -1 -7 5 -7 7 0 12 -7 12 -16 0 -9 -5 -12 -12 -8 -7 4
-10 4 -6 -1 4 -4 3 -14 -3 -21 -6 -8 -7 -14 0 -18 6 -4 8 -14 5 -24 -5 -15 -4
-15 5 -2 9 12 11 10 8 -10 -1 -14 -6 -30 -10 -37 -4 -6 -2 -15 4 -19 8 -5 9
-3 4 6 -5 9 -4 11 4 6 15 -10 3 -29 -15 -22 -8 3 -11 0 -7 -10 3 -8 12 -13 19
-10 8 3 14 1 14 -4 0 -6 -5 -10 -12 -10 -6 0 -8 -3 -5 -7 4 -3 2 -12 -4 -20
-9 -9 -8 -17 0 -27 15 -18 23 -59 10 -51 -5 4 -7 10 -5 14 3 4 -1 8 -9 8 -10
0 -12 -4 -5 -12 5 -7 7 -15 3 -18 -3 -4 -1 -7 5 -7 7 0 12 -7 12 -16 0 -9 -5
-12 -12 -8 -8 5 -7 0 2 -11 8 -10 10 -16 3 -12 -7 5 -10 1 -8 -10 1 -10 -2
-23 -7 -30 -5 -7 -5 -14 1 -17 6 -4 7 -14 4 -24 -4 -13 -2 -13 10 3 16 20 16
20 12 -3 -3 -19 -1 -22 17 -16 16 5 19 3 12 -7 -6 -12 -5 -12 9 0 13 10 17 10
17 1 0 -9 3 -10 13 -1 10 7 17 7 24 0 8 -8 13 -7 18 2 5 7 4 10 -2 6 -6 -4
-13 0 -16 8 -4 9 -1 12 9 8 9 -3 14 2 14 17 0 11 4 19 9 15 5 -3 13 0 17 6 4
7 3 9 -4 5 -6 -3 -13 -2 -17 4 -4 6 -11 7 -17 4 -7 -4 -8 -2 -4 5 5 7 16 9 29
5 21 -6 20 -5 -3 15 -14 13 -19 20 -12 16 13 -7 14 -6 16 48 0 22 -3 41 -8 45
-5 3 -6 0 -2 -6 5 -8 1 -10 -9 -5 -9 3 -12 9 -7 12 5 3 8 32 7 64 -1 53 0 57
19 51 19 -6 18 -4 -4 15 -14 13 -20 20 -14 17 12 -6 29 23 19 32 -3 3 -5 0 -5
-6 0 -7 -4 -12 -8 -12 -5 0 -7 23 -4 50 2 35 0 50 -9 50 -7 0 -9 3 -6 7 4 3
15 -2 25 -13 17 -17 17 -21 4 -44 l-14 -25 20 24 c18 23 19 27 5 50 l-15 26
20 -22 c11 -13 26 -23 34 -23 10 0 9 -3 -2 -10 -13 -8 -13 -10 2 -10 9 0 20
-5 24 -12 4 -7 3 -8 -4 -4 -8 5 -10 2 -6 -8 3 -9 11 -14 17 -13 7 1 11 -4 9
-10 -1 -7 2 -13 8 -13 5 0 10 -5 10 -11 0 -5 -5 -7 -12 -3 -7 4 -8 3 -4 -4 4
-6 13 -9 20 -6 7 3 18 -1 24 -8 10 -13 12 -18 12 -40 0 -9 4 -8 10 2 8 12 10
10 10 -8 0 -13 4 -20 10 -17 5 3 7 0 4 -9 -3 -9 5 -21 23 -31 15 -9 20 -14 10
-11 -11 3 -15 2 -12 -4 3 -6 15 -10 26 -10 14 0 18 -4 12 -12 -15 -24 -11 -35
12 -32 18 1 22 -2 18 -14 -4 -9 -2 -13 4 -9 6 4 14 0 17 -9 4 -10 2 -13 -6 -8
-7 4 -8 3 -4 -4 4 -7 2 -12 -5 -12 -7 0 -10 -3 -7 -6 4 -3 16 -1 27 5 17 10
20 9 15 -4 -4 -9 1 -24 10 -34 9 -10 14 -21 11 -24 -3 -4 -2 -5 2 -2 3 3 15
-7 25 -22 10 -16 18 -23 18 -18 0 6 -14 28 -32 50 -20 25 -23 33 -9 20 12 -11
30 -32 39 -47 11 -20 19 -24 28 -17 8 7 15 6 20 -2 4 -8 3 -9 -4 -5 -7 4 -12
2 -12 -3 0 -14 17 -14 26 0 4 8 9 7 15 -2 7 -11 9 -10 9 4 0 10 5 15 10 12 6
-4 7 -12 3 -18 -4 -8 -1 -8 9 1 10 8 14 21 10 34 -4 16 -2 19 8 13 8 -5 11 -4
6 3 -3 5 0 13 6 15 10 4 10 6 0 6 -7 1 -10 6 -6 13 4 7 3 8 -5 4 -6 -4 -8 -12
-5 -18 4 -7 2 -8 -4 -4 -6 4 -9 13 -6 21 3 7 0 23 -6 35 -8 15 -9 20 -1 16 6
-4 14 0 17 8 3 9 11 13 18 9 8 -4 8 -2 -1 7 -6 7 -9 19 -6 26 3 8 1 14 -5 14
-5 0 -9 -10 -8 -22 0 -11 -6 -23 -14 -25 -9 -3 -11 -1 -4 4 5 4 10 23 9 41 0
22 4 32 15 33 10 0 11 2 3 6 -9 3 -10 10 -3 23 7 13 7 21 0 25 -5 3 -10 1 -10
-5 0 -6 -4 -9 -10 -5 -11 7 21 44 32 38 4 -2 5 3 2 11 -7 18 -25 22 -22 5 2
-6 -4 -14 -12 -16 -9 -3 -11 -1 -4 4 5 4 10 23 9 41 0 22 4 32 15 33 10 0 11
2 3 6 -9 3 -10 10 -3 23 7 13 7 21 0 25 -5 3 -10 1 -10 -5 0 -6 -4 -9 -10 -5
-12 7 22 44 35 37 6 -3 5 1 -2 8 -6 7 -9 19 -6 26 3 8 0 14 -5 14 -6 0 -9 -10
-7 -21 3 -12 1 -19 -3 -15 -14 14 -8 66 8 67 10 0 11 2 2 6 -10 4 -10 8 -1 19
6 8 8 14 3 14 -5 0 -2 5 6 11 12 9 12 10 -4 5 -14 -5 -17 -3 -11 11 4 10 8 27
9 38 1 11 6 27 11 35 8 13 7 13 -8 1 -9 -7 -14 -18 -10 -24 3 -6 1 -7 -6 -3
-9 6 -8 14 4 32 8 13 12 24 8 23 -18 -3 -33 2 -33 11 0 5 7 7 15 4 8 -4 15 -2
15 2 0 5 -16 10 -35 11 -25 1 -33 -2 -29 -10 4 -7 -5 -1 -21 13 -16 14 -26 21
-23 15z m96 -135 c-7 -10 -14 -18 -15 -16 -6 6 9 36 18 36 5 0 4 -9 -3 -20z
m12 -44 c0 -2 -7 -7 -16 -10 -8 -3 -12 -2 -9 4 6 10 25 14 25 6z m-627 -170
c4 -10 1 -13 -8 -9 -8 3 -12 9 -9 14 7 12 11 11 17 -5z m124 -271 c0 -8 -4
-15 -9 -15 -10 0 -11 14 -1 23 9 10 10 9 10 -8z m-124 -80 c-3 -8 -10 -15 -15
-15 -7 0 -6 5 1 13 6 8 7 18 3 22 -4 5 -2 5 5 1 7 -4 10 -13 6 -21z"/>
<path d="M3433 2959 c-2 -23 3 -25 10 -4 4 8 3 16 -1 19 -4 3 -9 -4 -9 -15z"/>
<path d="M4789 2937 c29 -32 28 -31 28 -12 0 8 -3 13 -5 10 -3 -3 -15 3 -26
12 -15 13 -14 10 3 -10z"/>
<path d="M1843 2915 c0 -8 4 -12 9 -9 5 3 6 10 3 15 -9 13 -12 11 -12 -6z"/>
<path d="M140 2900 c-9 -6 -10 -10 -3 -10 6 0 15 5 18 10 8 12 4 12 -15 0z"/>
<path d="M2036 2892 c-3 -5 1 -9 9 -9 8 0 12 4 9 9 -3 4 -7 8 -9 8 -2 0 -6 -4
-9 -8z"/>
<path d="M2349 2883 c-12 -16 -12 -17 2 -6 9 7 20 9 24 5 5 -4 5 -1 1 6 -9 16
-11 15 -27 -5z"/>
<path d="M385 2880 c-3 -6 1 -7 9 -4 18 7 21 14 7 14 -6 0 -13 -4 -16 -10z"/>
<path d="M2487 2875 c3 -8 9 -12 14 -9 12 7 11 11 -5 17 -10 4 -13 1 -9 -8z"/>
<path d="M514 2868 c-4 -7 -3 -10 1 -5 5 4 17 0 27 -10 10 -9 20 -14 22 -12 2
2 -6 12 -19 22 -18 13 -25 14 -31 5z"/>
<path d="M113 2845 c0 -8 4 -12 9 -9 4 3 8 9 8 15 0 5 -4 9 -8 9 -5 0 -9 -7
-9 -15z"/>
<path d="M4905 2789 c-4 -6 -5 -12 -2 -15 2 -3 7 2 10 11 7 17 1 20 -8 4z"/>
<path d="M2655 2750 c3 -5 11 -10 16 -10 6 0 7 5 4 10 -3 6 -11 10 -16 10 -6
0 -7 -4 -4 -10z"/>
<path d="M1410 2741 c0 -6 4 -13 10 -16 6 -3 7 1 4 9 -7 18 -14 21 -14 7z"/>
<path d="M64 2732 c-6 -4 -13 -15 -17 -24 -4 -12 -2 -15 9 -11 8 3 12 8 10 11
-3 3 -1 11 5 19 13 14 10 17 -7 5z"/>
<path d="M2055 2711 c-3 -5 -2 -12 3 -15 5 -3 9 1 9 9 0 17 -3 19 -12 6z"/>
<path d="M2655 2691 c-3 -5 -2 -12 3 -15 5 -3 9 1 9 9 0 17 -3 19 -12 6z"/>
<path d="M4185 2670 c-3 -5 -1 -10 4 -10 6 0 11 5 11 10 0 6 -2 10 -4 10 -3 0
-8 -4 -11 -10z"/>
<path d="M2650 2651 c0 -6 4 -12 8 -15 5 -3 9 1 9 9 0 8 -4 15 -9 15 -4 0 -8
-4 -8 -9z"/>
<path d="M2655 2611 c-3 -5 -2 -12 3 -15 5 -3 9 1 9 9 0 17 -3 19 -12 6z"/>
<path d="M4185 2590 c-3 -5 1 -10 10 -10 9 0 13 5 10 10 -3 6 -8 10 -10 10 -2
0 -7 -4 -10 -10z"/>
<path d="M3696 2582 c-3 -5 1 -9 9 -9 8 0 12 4 9 9 -3 4 -7 8 -9 8 -2 0 -6 -4
-9 -8z"/>
<path d="M3900 2571 c0 -7 -5 -9 -12 -5 -7 5 -8 3 -3 -5 5 -9 10 -10 18 -2 6
6 8 14 4 18 -4 3 -7 1 -7 -6z"/>
<path d="M1255 2550 c3 -5 8 -10 11 -10 2 0 4 5 4 10 0 6 -5 10 -11 10 -5 0
-7 -4 -4 -10z"/>
<path d="M3573 2543 c0 -9 4 -10 14 -2 7 6 13 12 13 14 0 1 -6 2 -13 2 -8 0
-14 -6 -14 -14z"/>
<path d="M2655 2531 c-3 -5 -2 -12 3 -15 5 -3 9 1 9 9 0 17 -3 19 -12 6z"/>
<path d="M40 2509 c0 -5 5 -7 10 -4 6 3 10 8 10 11 0 2 -4 4 -10 4 -5 0 -10
-5 -10 -11z"/>
<path d="M3575 2510 c-3 -6 1 -7 9 -4 18 7 21 14 7 14 -6 0 -13 -4 -16 -10z"/>
<path d="M3570 2486 c0 -2 7 -9 15 -16 13 -11 14 -10 9 4 -5 14 -24 23 -24 12z"/>
<path d="M1810 2430 c0 -5 5 -10 11 -10 5 0 7 5 4 10 -3 6 -8 10 -11 10 -2 0
-4 -4 -4 -10z"/>
<path d="M5095 2409 c3 -3 -6 -9 -20 -11 -13 -3 -22 -1 -19 3 3 5 1 9 -4 9
-16 0 -22 -13 -11 -27 16 -18 4 -17 -15 2 -13 14 -15 13 -13 -4 0 -11 6 -17
12 -14 5 3 4 0 -2 -8 -15 -15 -17 -33 -4 -25 5 3 12 -1 15 -10 4 -10 2 -13 -6
-8 -7 5 -9 2 -5 -8 3 -9 0 -22 -6 -29 -7 -8 -8 -10 -3 -6 5 3 15 -1 23 -11 8
-9 12 -11 8 -4 -9 17 0 15 20 -4 15 -15 17 -15 34 0 14 13 21 14 27 5 4 -8 3
-10 -4 -5 -7 4 -12 3 -12 -3 0 -8 39 -8 60 -1 3 2 8 2 11 2 3 -1 7 32 8 72 2
59 -1 75 -15 87 -12 9 -15 10 -10 2 5 -9 -2 -13 -24 -13 -17 0 -29 4 -26 8 3
5 -1 9 -9 9 -8 0 -12 -4 -10 -8z m82 -23 c0 -8 -6 -12 -15 -9 -11 5 -11 7 0
14 7 5 13 9 14 9 0 0 1 -6 1 -14z m-12 -113 c-2 -10 -4 -19 -4 -21 -1 -2 -6 0
-11 3 -8 5 -7 11 1 21 15 18 18 18 14 -3z"/>
<path d="M373 2385 c0 -8 4 -12 9 -9 5 3 6 10 3 15 -9 13 -12 11 -12 -6z"/>
<path d="M4070 2371 c0 -5 5 -13 10 -16 6 -3 10 -2 10 4 0 5 -4 13 -10 16 -5
3 -10 2 -10 -4z"/>
<path d="M2649 2353 c-13 -16 -12 -17 4 -4 16 13 21 21 13 21 -2 0 -10 -8 -17
-17z"/>
<path d="M2816 2317 c3 -10 9 -15 12 -12 3 3 0 11 -7 18 -10 9 -11 8 -5 -6z"/>
<path d="M5000 2311 c0 -6 4 -13 10 -16 6 -3 7 1 4 9 -7 18 -14 21 -14 7z"/>
<path d="M1238 2293 c7 -3 16 -2 19 1 4 3 -2 6 -13 5 -11 0 -14 -3 -6 -6z"/>
<path d="M2070 2235 c-11 -13 -10 -14 4 -9 9 3 16 10 16 15 0 13 -6 11 -20 -6z"/>
<path d="M4556 2237 c3 -10 9 -15 12 -12 3 3 0 11 -7 18 -10 9 -11 8 -5 -6z"/>
<path d="M435 2231 c-3 -5 -2 -12 3 -15 5 -3 9 1 9 9 0 17 -3 19 -12 6z"/>
<path d="M2041 2224 c0 -11 3 -14 6 -6 3 7 2 16 -1 19 -3 4 -6 -2 -5 -13z"/>
<path d="M4536 2227 c3 -10 9 -15 12 -12 3 3 0 11 -7 18 -10 9 -11 8 -5 -6z"/>
</g>
</svg>
